<?xml version="1.0" standalone="no"?>
<!DOCTYPE svg PUBLIC "-//W3C//DTD SVG 20010904//EN"
 "http://www.w3.org/TR/2001/REC-SVG-20010904/DTD/svg10.dtd">
<svg version="1.0" xmlns="http://www.w3.org/2000/svg"
 width="1024.000000pt" height="1024.000000pt" viewBox="0 0 1024.000000 1024.000000"
 preserveAspectRatio="xMidYMid meet">

<g transform="translate(0.000000,1024.000000) scale(0.100000,-0.100000)"
fill="#000000" stroke="none">
<path d="M1382 9077 c-37 -21 -318 -303 -351 -353 -40 -61 -48 -106 -28 -149
37 -78 139 -113 238 -82 l46 14 5 -126 c8 -199 21 -214 190 -220 l108 -3 0
-100 c0 -100 0 -100 33 -133 40 -40 89 -55 183 -55 l71 0 5 -78 c3 -42 13 -94
21 -114 17 -40 63 -87 115 -115 38 -21 38 -20 15 -98 -14 -46 -29 -70 -69
-110 -29 -27 -58 -62 -65 -76 -8 -15 -47 -58 -87 -95 -65 -59 -76 -66 -93 -56
-25 16 -102 15 -142 -2 -18 -7 -54 -33 -82 -58 -49 -45 -49 -46 -50 -107 0
-60 1 -64 38 -94 21 -18 68 -61 106 -97 104 -100 189 -173 224 -192 51 -27 97
-23 150 15 78 55 91 79 91 164 l1 75 58 43 c31 24 64 50 71 57 8 7 47 38 87
68 40 30 99 79 131 109 l58 54 34 -39 c39 -45 338 -352 423 -434 31 -30 84
-84 118 -120 33 -36 93 -96 134 -135 41 -38 132 -126 202 -195 71 -69 188
-179 260 -245 72 -66 182 -167 245 -225 62 -58 150 -136 194 -175 45 -38 111
-97 148 -130 66 -60 202 -176 287 -245 223 -181 285 -233 315 -265 19 -20 51
-45 70 -56 19 -10 62 -44 95 -75 33 -31 83 -71 110 -89 28 -17 59 -42 70 -54
11 -13 42 -39 70 -59 27 -19 68 -52 90 -72 22 -21 78 -63 125 -95 47 -32 108
-80 136 -106 29 -26 72 -61 97 -76 24 -16 58 -42 74 -59 17 -16 61 -47 97 -69
37 -22 72 -47 77 -57 5 -10 16 -18 23 -18 8 0 54 -33 103 -73 48 -40 108 -85
133 -100 50 -30 140 -93 240 -167 36 -26 81 -55 100 -65 19 -10 64 -41 100
-70 36 -28 92 -67 125 -85 33 -18 76 -46 95 -60 58 -45 213 -146 251 -164 20
-10 54 -32 75 -50 22 -18 59 -43 84 -56 25 -12 56 -32 70 -45 14 -12 52 -37
85 -55 33 -18 103 -60 155 -95 52 -34 133 -84 180 -110 47 -27 105 -63 130
-80 25 -18 80 -51 123 -73 75 -41 100 -55 295 -168 51 -30 97 -54 103 -54 16
0 92 -41 121 -66 15 -12 53 -32 83 -43 31 -12 80 -36 109 -55 48 -31 179 -96
193 -96 3 0 58 -29 122 -64 114 -62 143 -76 406 -191 72 -31 135 -60 140 -64
21 -15 312 -119 463 -166 83 -26 105 -26 87 -1 -149 203 -279 532 -314 796
-19 142 -18 138 -72 165 -26 14 -56 25 -66 25 -10 0 -54 16 -98 35 -44 20
-109 47 -145 62 -36 14 -84 34 -107 44 -23 11 -46 19 -51 19 -35 0 -1045 507
-1128 566 -16 12 -78 47 -139 79 -60 32 -124 68 -140 81 -17 13 -48 31 -70 41
-22 10 -53 27 -70 37 -16 11 -52 34 -80 51 -27 18 -75 48 -105 67 -30 20 -91
54 -135 78 -44 23 -91 52 -105 65 -23 21 -102 73 -265 175 -38 24 -87 55 -108
69 -21 14 -61 40 -87 57 -27 17 -69 45 -92 63 -111 81 -207 148 -238 165 -19
10 -66 42 -105 70 -38 29 -80 59 -91 67 -108 73 -180 123 -184 129 -3 3 -26
20 -51 37 -25 17 -51 39 -59 48 -8 9 -37 32 -65 49 -72 47 -185 131 -220 165
-16 16 -57 46 -90 67 -33 21 -64 43 -70 49 -22 25 -122 103 -151 118 -18 9
-49 34 -70 55 -22 21 -70 63 -109 92 -38 29 -73 59 -78 66 -4 7 -32 27 -62 44
-30 17 -67 47 -81 66 -14 18 -47 47 -74 63 -26 16 -73 54 -105 85 -32 32 -85
78 -119 104 -33 26 -84 67 -112 92 -28 25 -114 99 -190 165 -76 66 -170 150
-209 187 -38 37 -89 80 -111 97 -23 16 -48 38 -55 48 -17 22 -172 169 -253
238 -32 28 -66 59 -75 70 -9 11 -35 38 -59 60 -133 124 -629 629 -758 772
l-41 46 26 37 c14 20 69 96 121 168 52 72 113 159 135 194 21 34 54 79 73 100
l33 37 41 -15 c55 -19 81 -18 139 7 40 17 54 31 78 73 16 28 32 73 36 99 6 45
5 49 -28 80 -84 77 -185 167 -217 193 -19 15 -62 54 -95 86 -82 78 -106 98
-119 98 -37 0 -88 -25 -115 -55 -47 -53 -60 -86 -83 -203 -32 -166 -62 -216
-228 -379 -19 -19 -52 -46 -72 -60 -20 -14 -44 -36 -53 -49 -8 -13 -22 -24
-31 -24 -9 0 -45 28 -80 62 -56 53 -72 63 -122 74 -32 6 -61 8 -66 3 -6 -5
-36 -9 -68 -9 -55 0 -58 1 -58 24 0 14 5 28 10 31 15 9 12 60 -5 102 -8 19
-15 51 -15 69 0 28 -6 38 -32 54 -27 16 -51 20 -135 20 l-101 0 1 93 c2 110
-10 139 -73 182 -39 26 -55 30 -128 34 l-84 3 6 27 c20 83 18 137 -4 189 -38
89 -104 124 -168 89z"/>
<path d="M10080 80 l0 -80 80 0 80 0 0 80 0 80 -80 0 -80 0 0 -80z"/>
</g>
</svg>
